<svg xmlns="http://www.w3.org/2000/svg" version="1.1" xmlns:xlink="http://www.w3.org/1999/xlink" width="200" height="200"><svg xmlns="http://www.w3.org/2000/svg" version="1.1" xmlns:xlink="http://www.w3.org/1999/xlink" viewBox="0 0 200 200"><rect width="200" height="200" fill="url('#gradient')"></rect><defs><linearGradient id="SvgjsLinearGradient1001" gradientTransform="rotate(0 0.5 0.5)"><stop offset="0%" stop-color="#004678"></stop><stop offset="100%" stop-color="#fffbb4"></stop></linearGradient></defs><g><g fill="#ffffff" transform="matrix(5.888094360486546,0,0,5.888094360486546,18.540207106408886,131.06301619940652)" stroke="#c8512e" stroke-width="0"><path d="M7.29-10.57L10.17-10.57L10.17-3.45Q10.20-2.35 10.84-2.35L10.84-2.35Q10.95-2.35 11.00-2.38L11.00-2.38L11.25 0Q10.75 0.21 10.03 0.21L10.03 0.21Q8.08 0.21 7.27-1.45L7.27-1.45Q6.34 0.20 4.70 0.20L4.70 0.20Q2.79 0.20 1.69-1.22Q0.59-2.63 0.59-5.26L0.59-5.26Q0.59-7.77 1.68-9.27Q2.78-10.76 4.72-10.76L4.72-10.76Q6.19-10.76 7.06-9.36L7.06-9.36L7.29-10.57ZM3.90-5.06L3.90-5.06Q3.90-3.66 4.30-3.00Q4.71-2.34 5.53-2.34L5.53-2.34Q6.43-2.34 6.87-2.96L6.87-2.96L6.87-7.50Q6.43-8.22 5.55-8.22L5.55-8.22Q3.90-8.22 3.90-5.06ZM13.41-10.57L16.46-10.57Q15.24-7.97 15.18-5.53L15.18-5.53Q15.18-3.97 15.50-3.16Q15.83-2.34 16.44-2.34L16.44-2.34Q17.72-2.34 17.72-5L17.72-5L17.72-8.52L21.25-8.52L21.25-5Q21.25-2.34 22.54-2.34L22.54-2.34Q23.13-2.34 23.47-3.16Q23.80-3.98 23.80-5.53L23.80-5.53Q23.72-8.02 22.50-10.57L22.50-10.57L25.56-10.57Q27.08-8.31 27.08-5.53L27.08-5.53Q27.08-2.64 25.96-1.22Q24.84 0.20 22.64 0.20L22.64 0.20Q20.52 0.20 19.48-1.77L19.48-1.77Q18.97-0.80 18.17-0.30Q17.36 0.20 16.34 0.20L16.34 0.20Q14.12 0.20 13.00-1.22Q11.88-2.64 11.88-5.53L11.88-5.53Q11.88-8.31 13.41-10.57L13.41-10.57Z"></path></g></g></svg><style>@media (prefers-color-scheme: light) { :root { filter: none; } }
@media (prefers-color-scheme: dark) { :root { filter: none; } }
</style></svg>